<?xml version="1.0" standalone="no"?>
<!DOCTYPE svg PUBLIC "-//W3C//DTD SVG 1.1//EN" "http://www.w3.org/Graphics/SVG/1.1/DTD/svg11.dtd" >
<svg xmlns="http://www.w3.org/2000/svg" xmlns:xlink="http://www.w3.org/1999/xlink" version="1.1">
<metadata></metadata>
<defs>
<font id="engebrechtreregular" horiz-adv-x="813" >
<font-face units-per-em="2048" ascent="1671" descent="-377" />
<missing-glyph horiz-adv-x="565" />
<glyph unicode="&#x28;C&#x29;" horiz-adv-x="1693" d="M61 844q0 197 56.5 356.5t160 272t247 174t317.5 61.5q172 0 316.5 -61.5t247.5 -174t160.5 -272.5t57.5 -356q0 -197 -57.5 -356.5t-162 -272.5t-247.5 -174t-315 -61t-316.5 61t-247 174t-160 272.5t-57.5 356.5zM145 844q0 -176 51.5 -318.5t143.5 -244t220 -155.5 t282 -54t281.5 54t221 155.5t144.5 244t51 318.5q0 174 -51 316.5t-143.5 243.5t-221.5 155.5t-282 54.5q-154 0 -282 -54.5t-220 -155.5t-143.5 -243.5t-51.5 -316.5zM571 588v514q0 305 279 305q156 0 229 -117l-84 -43q-43 80 -129 80q-133 0 -133 -225v-516 q0 -199 137 -199q133 0 152 197l80 -15q-23 -258 -252 -258q-279 0 -279 277z" />
<glyph unicode="&#x28;R&#x29;" horiz-adv-x="1693" d="M61 844q0 197 56.5 356.5t160 272t247 174t317.5 61.5q172 0 316.5 -61.5t247.5 -174t160.5 -272.5t57.5 -356q0 -197 -57.5 -356.5t-162 -272.5t-247.5 -174t-315 -61t-316.5 61t-247 174t-160 272.5t-57.5 356.5zM145 844q0 -176 51.5 -318.5t143.5 -244t220 -155.5 t282 -54t281.5 54t221 155.5t144.5 244t51 318.5q0 174 -51 316.5t-143.5 243.5t-221.5 155.5t-282 54.5q-154 0 -282 -54.5t-220 -155.5t-143.5 -243.5t-51.5 -316.5zM578 330v1059h210q174 0 261.5 -62.5t87.5 -212.5q0 -98 -41 -155.5t-129 -88.5q80 -23 126 -81t46 -154 v-305h-162v313q0 186 -158 186h-78v-499h-163zM741 907h78q160 0 160 203q0 102 -41 151.5t-119 49.5h-78v-404z" />
<glyph horiz-adv-x="0" />
<glyph unicode="&#xd;" horiz-adv-x="565" />
<glyph horiz-adv-x="659" />
<glyph unicode=" "  horiz-adv-x="565" />
<glyph unicode="&#x09;" horiz-adv-x="565" />
<glyph unicode="&#xa0;" horiz-adv-x="565" />
<glyph unicode="!" horiz-adv-x="366" d="M51 111q0 55 37 93t94 38q55 0 93 -38t38 -93q0 -57 -37.5 -94t-93.5 -37q-57 0 -94 37t-37 94zM55 1575q0 68 38 100.5t93 32.5t93 -33t38 -100q0 -37 -4 -125t-10 -206t-14 -251t-16.5 -258t-16.5 -228.5t-14 -160.5h-113q-6 57 -14.5 160.5t-16.5 228.5t-16 258 t-13.5 251t-9.5 206t-4 125z" />
<glyph unicode="&#x22;" horiz-adv-x="602" d="M29 1239zM29 1575q0 55 32.5 94t88.5 39q55 0 88.5 -39t33.5 -94q0 -31 -10 -71t-22.5 -85t-22.5 -91t-10 -89h-115q-4 53 -15 100t-21.5 89t-18.5 79t-8 68zM330 1575q0 55 32.5 94t88.5 39q55 0 88.5 -39t33.5 -94q0 -31 -10 -71t-22.5 -85t-22.5 -91t-10 -89h-115 q-4 53 -15 100t-21.5 89t-18.5 79t-8 68z" />
<glyph unicode="#" horiz-adv-x="983" d="M25 541l47 178h200l52 201h-197l45 176h201l88 327h94l-90 -327h201l88 327h94l-90 -327h198l-45 -176h-200l-54 -201h199l-47 -178h-201l-86 -324h-92l86 324h-201l-86 -324h-92l86 324h-198zM365 719h200l53 201h-200z" />
<glyph unicode="$" horiz-adv-x="884" d="M41 381l96 49q74 -178 271 -188v481q-59 41 -117 82t-105 88q-45 43 -71.5 100.5t-26.5 136.5q0 61 18.5 122t57.5 111t99.5 86t144.5 46v191h92v-189q135 -8 225 -96l-82 -82q-57 57 -143 78v-443q57 -41 104 -75.5t94 -75.5q70 -59 111 -140t41 -169 q0 -59 -20.5 -114.5t-62.5 -102t-108.5 -79t-158.5 -42.5v-156h-92v152q-117 2 -215.5 60t-151.5 169zM240 1235q0 -39 21.5 -75t62.5 -73q20 -16 40.5 -32.5t43.5 -30.5v383q-72 -6 -120 -56.5t-48 -115.5zM500 246q92 16 142 62t50 108q1 78 -108 172q-45 39 -84 63v-405z " />
<glyph unicode="%" horiz-adv-x="1593" d="M100 0zM101 989v442q0 268 274 269q276 0 277 -250v-440q-1 -269 -277 -269q-274 0 -274 248zM252 985q0 -170 125 -170q123 0 123 195v444q0 170 -125 170q-123 0 -123 -193v-446zM262 0l971 1686h105l-971 -1686h-105zM942 215v442q0 268 274 269q276 0 277 -250v-440 q-1 -269 -277 -269q-274 0 -274 248zM1093 211q0 -170 125 -170q123 0 123 195v444q0 170 -125 170q-123 0 -123 -193v-446z" />
<glyph unicode="&#x26;" horiz-adv-x="1157" d="M61 475q0 88 22.5 160t62.5 127t94.5 98t119.5 78q-35 20 -77.5 57t-79.5 86t-61.5 107.5t-24.5 122.5q0 86 29.5 159.5t84 126t132 82t174.5 29.5q256 0 350 -211l-99 -37q-80 150 -249 150q-68 0 -113 -25.5t-71.5 -67.5t-38 -94.5t-11.5 -105.5q0 -74 11.5 -127 t31 -91t47 -64.5t58.5 -47.5q41 25 98 47.5t111 22.5q47 0 82.5 -22.5t35.5 -90.5q0 -63 -36.5 -93t-86.5 -30q-51 0 -108 16.5t-100 51.5q-35 -18 -64 -55t-51.5 -89.5t-34.5 -117t-12 -135.5q0 -80 17.5 -157t52 -135.5t90 -94t133.5 -35.5q80 0 146.5 29.5t115.5 78.5 t76.5 114.5t27.5 137.5q0 131 -88 232q-55 -37 -88 -80t-33 -111q0 -20 2 -29h-92q-2 4 -2 15.5v27.5q0 45 12.5 83t39 74t65.5 69.5t92 72.5q39 29 71.5 51.5t56.5 47t38 56.5t16 79h94q-10 -74 -30.5 -118t-47 -72.5t-58 -51t-64.5 -53.5q53 -61 80.5 -136t27.5 -153 q0 -96 -34.5 -179t-95 -144.5t-143.5 -96t-181 -34.5q-244 0 -383.5 130t-139.5 365zM516 934q27 -27 57.5 -35t57.5 -8q33 0 53.5 13.5t20.5 39.5q0 33 -19.5 41t-42.5 8q-27 0 -60.5 -17t-66.5 -42z" />
<glyph unicode="'" horiz-adv-x="301" d="M29 1575q0 55 32.5 94t88.5 39q55 0 88.5 -39t33.5 -94q0 -31 -10 -71t-22.5 -85t-22.5 -91t-10 -89h-115q-4 53 -15 100t-21.5 89t-18.5 79t-8 68z" />
<glyph unicode="(" horiz-adv-x="710" d="M135 236v1171q0 475 522 475h45v-90h-104q-293 0 -293 -446v-1053q0 -395 293 -395h104v-97h-24q-543 0 -543 435z" />
<glyph unicode=")" horiz-adv-x="710" d="M8 -102h105q293 0 293 395v1053q0 446 -293 446h-105v90h45q522 0 522 -475v-1171q0 -434 -544 -435h-23v97z" />
<glyph unicode="*" horiz-adv-x="1298" d="M35 864l31 191l448 -121l-360 291l135 135l291 -361l-121 449l213 29v-463l168 434l170 -88l-254 -389l389 254l88 -170l-434 -191h463l-29 -190l-449 121l361 -291l-135 -135l-291 360l121 -448l-213 -31v465l-168 -434l-170 88l252 387l-387 -252l-88 170l434 190h-465 z" />
<glyph unicode="+" d="M29 811v111h321v319h109v-319h323v-111h-323v-322h-109v322h-321z" />
<glyph unicode="," horiz-adv-x="348" d="M45 111q0 55 37 93t92 38t94 -38t39 -93q0 -102 -53 -170t-137 -103l-41 68q31 10 66.5 32.5t54.5 47.5q-10 -2 -19.5 -3t-13.5 -1q-55 0 -87 40t-32 89z" />
<glyph unicode="-" horiz-adv-x="481" d="M27 807v104h426v-104h-426z" />
<glyph unicode="." horiz-adv-x="366" d="M51 111q0 55 37 93t94 38q55 0 93 -38t38 -93q0 -57 -37.5 -94t-93.5 -37q-57 0 -94 37t-37 94z" />
<glyph unicode="/" horiz-adv-x="583" d="M4 -211l467 2107h109l-465 -2107h-111z" />
<glyph unicode="0" horiz-adv-x="1173" d="M100 414v819q0 475 486 475q487 0 487 -434v-821q0 -473 -485 -473q-487 0 -488 434zM336 408q0 -166 62.5 -252t191.5 -86q250 0 250 383v827q0 332 -256 332q-248 0 -248 -379v-825z" />
<glyph unicode="1" horiz-adv-x="512" d="M51 1585v101h338v-1686h-233v1585h-105z" />
<glyph unicode="2" horiz-adv-x="983" d="M47 0l590 1176q25 51 35 95t10 89q0 43 -12.5 88t-40 83t-75.5 62.5t-118 24.5q-111 0 -173 -83t-85 -232l-100 16q39 389 375 389q111 0 190.5 -33t131.5 -87t77 -123.5t25 -143.5q0 -57 -14.5 -113.5t-49.5 -124.5l-489 -993h530v-90h-807z" />
<glyph unicode="3" horiz-adv-x="1087" d="M29 367l102 16q10 -66 41 -123t77 -99t107.5 -66.5t132.5 -24.5q76 0 132.5 35.5t91.5 94t52 135.5t17 157q0 72 -12 136t-34.5 116.5t-52.5 89t-62 55.5q-43 -35 -100.5 -51.5t-108.5 -16.5q-49 0 -86 30t-37 93q0 68 35.5 90.5t83.5 22.5q53 0 110 -22.5t98 -47.5 q31 20 58.5 47t47 65t31 91t11.5 127q0 53 -11.5 105.5t-38 94.5t-72.5 67.5t-114 25.5q-168 0 -247 -150l-99 37q92 211 348 211q98 0 176 -29.5t132.5 -82t84 -126t29.5 -159.5q0 -63 -24.5 -122t-61.5 -108t-80 -86t-77 -57q66 -35 120 -78t94 -98t62.5 -127t22.5 -160 q0 -236 -139.5 -365.5t-383.5 -129.5q-86 0 -162.5 25.5t-137 75.5t-101.5 121.5t-55 164.5zM365 944q0 -27 19 -40t54 -13q27 0 57.5 8t57.5 35q-33 25 -67.5 42t-59.5 17t-43 -8t-18 -41z" />
<glyph unicode="4" horiz-adv-x="1042" d="M35 258v92l643 1336h184v-1336h135v-92h-135v-258h-233v258h-594zM139 350h490v996z" />
<glyph unicode="5" horiz-adv-x="1097" d="M39 367l100 16q12 -80 46 -138.5t81 -97t102.5 -58t110.5 -19.5q312 0 312 467q0 125 -17.5 212t-53.5 140t-91.5 77.5t-128.5 24.5q-113 0 -179.5 -23.5t-115.5 -56.5l-90 11l59 764h721v-95h-496l-47 -540q29 8 67 14t89 6q129 0 223 -27.5t157.5 -93t94.5 -174 t31 -268.5q0 -137 -40 -236.5t-109.5 -164t-163 -96t-199.5 -31.5q-88 0 -167 23.5t-141.5 71.5t-103.5 120.5t-51 171.5z" />
<glyph unicode="6" horiz-adv-x="1142" d="M76 592q0 158 39 316.5t112.5 303t180 266t241.5 208.5h127q-43 -37 -109.5 -110t-133 -165t-117.5 -196.5t-64 -206.5q31 33 93.5 53t134.5 20q236 0 361.5 -147.5t125.5 -425.5q0 -115 -37 -212t-103.5 -168t-159.5 -109.5t-204 -38.5q-127 0 -219 49t-151.5 133 t-88 195.5t-28.5 234.5zM299 588q0 -84 17.5 -175t52 -168t84 -126t114.5 -49q78 0 131.5 41t85 105.5t45 140t13.5 147.5q0 76 -11.5 160t-43 155.5t-88 118.5t-144.5 47q-59 0 -124.5 -27.5t-108.5 -74.5q-14 -80 -18.5 -148.5t-4.5 -146.5z" />
<glyph unicode="7" horiz-adv-x="976" d="M33 1591v95h889v-64l-523 -1622h-258l543 1591h-651z" />
<glyph unicode="8" horiz-adv-x="1155" d="M84 475q0 74 19.5 143.5t57.5 131t95 111.5t133 85q-109 45 -170 144.5t-61 216.5q0 88 30.5 162.5t87 127t133 82t169.5 29.5q96 0 173.5 -29.5t132 -84t83 -128t28.5 -161.5q0 -76 -21.5 -135.5t-55 -104.5t-74.5 -74.5t-78 -44.5q70 -31 127 -80t96 -108.5t60.5 -127 t21.5 -136.5q0 -121 -33.5 -216.5t-97 -161t-156 -101t-206.5 -35.5q-109 0 -200 34.5t-156.5 99t-101.5 156.5t-36 205zM309 483q0 -74 15.5 -147.5t47 -134t84 -97t126.5 -36.5q72 0 122 37.5t81.5 98t46 136.5t14.5 154q0 109 -22.5 186.5t-60.5 126.5t-87.5 71.5 t-100.5 22.5q-53 0 -101 -22.5t-85 -72.5t-58.5 -130t-21.5 -193zM350 1298q0 -162 63.5 -238.5t161.5 -76.5q111 0 170.5 76t59.5 239q0 55 -10.5 109.5t-37 99.5t-70.5 73t-114 28t-112.5 -29t-67 -73t-34 -99t-9.5 -109z" />
<glyph unicode="9" horiz-adv-x="1142" d="M76 1202q0 111 37 204t103.5 160.5t159.5 104.5t204 37q127 0 219 -47t151.5 -129t88 -191.5t28.5 -234.5q0 -158 -39 -318.5t-112.5 -307t-180 -270.5t-241.5 -210h-127q43 37 109.5 111.5t132 169t117.5 201t65 208.5q-35 -33 -95.5 -53.5t-132.5 -20.5 q-238 0 -362.5 149.5t-124.5 436.5zM301 1194q0 -74 11.5 -159t43 -155.5t88 -117.5t144.5 -47q61 0 125.5 26.5t105.5 73.5q8 41 12.5 79t7.5 79t4 87t1 105q0 63 -18.5 141t-52.5 148t-84 117t-114 47q-78 0 -131 -40t-84.5 -101.5t-45 -137t-13.5 -145.5z" />
<glyph unicode=":" horiz-adv-x="403" d="M70 111q0 55 37.5 93t93.5 38q55 0 94 -38t39 -93q0 -57 -39 -94t-94 -37t-93 37t-38 94zM70 866q0 55 37.5 94t93.5 39q55 0 94 -38.5t39 -94.5q0 -55 -39 -93t-94 -38t-93 38t-38 93z" />
<glyph unicode=";" horiz-adv-x="399" d="M68 111q0 55 37.5 93t93.5 38q55 0 94 -38t39 -93q0 -102 -54.5 -170t-138.5 -103l-41 68q31 10 68 32.5t53 47.5q-10 -2 -18 -3t-13 -1q-55 0 -87.5 40t-32.5 89zM68 866q0 55 37.5 94t93.5 39q55 0 94 -38.5t39 -94.5q0 -55 -39 -93t-94 -38t-93 38t-38 93z" />
<glyph unicode="&#x3c;" d="M29 821v94l753 371v-125l-620 -295l620 -295v-125z" />
<glyph unicode="=" d="M29 600v111h753v-111h-753zM29 1022v111h753v-111h-753z" />
<glyph unicode="&#x3e;" d="M29 446v125l620 295l-620 295v125l753 -371v-94z" />
<glyph unicode="?" horiz-adv-x="862" d="M18 1309q23 199 119 299t297 100q88 0 162 -24.5t127 -73.5t83 -120t30 -163q0 -35 -3.5 -65.5t-11.5 -59t-21.5 -59.5t-31.5 -68q-18 -35 -50 -81t-70 -98t-78 -104.5t-74 -99.5q-35 -47 -56.5 -77.5t-34 -53t-16.5 -41t-4 -41.5q0 -66 70 -90l-49 -80 q-100 37 -142.5 100.5t-42.5 141.5q0 61 25.5 126.5t66.5 125.5q72 98 154 205.5t149 205.5q27 41 44.5 91.5t17.5 101.5q0 55 -21.5 95t-57.5 65.5t-79 37t-86 11.5q-143 0 -217 -82t-96 -242zM233 111q0 55 38 93t94 38q55 0 94 -38t39 -93q0 -57 -39 -94t-94 -37 t-93.5 37t-38.5 94z" />
<glyph unicode="@" horiz-adv-x="1275" d="M49 561q0 182 44 336t127 266.5t205 175t280 62.5q129 0 225 -54.5t160.5 -148.5t97.5 -223t33 -279q0 -109 -14.5 -206t-49.5 -170.5t-92 -116.5t-143 -43q-76 0 -126.5 58t-60.5 200q-16 -135 -56 -196.5t-99 -61.5q-53 0 -87 32.5t-52.5 87t-24.5 125t-6 146.5 q0 117 18 198.5t49 132t72 73t88 22.5q39 0 65.5 -29.5t40.5 -77.5v95h93v-590q0 -72 26.5 -112t77.5 -40t88 42t59.5 108.5t32.5 149.5t10 167q0 131 -27.5 247t-80.5 202t-134 135t-186 49q-133 0 -235 -53t-172 -153.5t-104.5 -242t-34.5 -315.5q0 -139 34.5 -265 t99 -221.5t159 -151.5t215.5 -56q147 0 266 46t205 120l59 -54q-47 -45 -101.5 -83.5t-122 -66.5t-151.5 -43t-190 -15q-137 0 -245 63.5t-182.5 172t-113.5 251.5t-39 305zM535 553q0 -137 17 -224t52 -87q41 0 79 103.5t38 326.5q0 51 -4 98t-13.5 83t-27 57.5t-43.5 21.5 q-18 0 -36.5 -19.5t-32 -63.5t-21.5 -117t-8 -179z" />
<glyph unicode="A" horiz-adv-x="1009" d="M25 0l424 1686h126l410 -1686h-256l-86 350h-436l-88 -350h-94zM229 442h394l-193 787z" />
<glyph unicode="B" horiz-adv-x="1069" d="M115 0v1686h352q225 0 328.5 -86.5t103.5 -272.5q0 -123 -55.5 -216t-167.5 -148q164 -29 259 -149t95 -337q0 -242 -138 -359.5t-392 -117.5h-385zM348 90h148q135 0 217 100.5t82 305.5q0 215 -82 320.5t-217 105.5h-148v-832zM348 1012h131q211 0 211 315 q0 135 -66.5 199.5t-191.5 64.5h-84v-579z" />
<glyph unicode="C" horiz-adv-x="987" d="M100 414v819q0 475 445 475q250 0 354 -166l-111 -53q-55 123 -217 123q-236 0 -235 -379v-825q0 -166 60.5 -252t183.5 -86q227 0 264 313l100 -16q-39 -387 -397 -387q-446 0 -447 434z" />
<glyph unicode="D" horiz-adv-x="1101" d="M115 0v1686h342q545 0 544 -435v-776q0 -475 -522 -475h-364zM348 90h127q293 0 293 385v782q0 334 -293 334h-127v-1501z" />
<glyph unicode="E" horiz-adv-x="862" d="M115 0v1686h696v-95h-463v-680h340v-96h-340v-725h463v-90h-696z" />
<glyph unicode="F" horiz-adv-x="837" d="M115 0v1686h696v-95h-463v-680h340v-96h-340v-815h-233z" />
<glyph unicode="G" horiz-adv-x="1042" d="M100 414v819q0 475 445 475q250 0 354 -166l-111 -53q-55 123 -217 123q-236 0 -235 -379v-825q0 -166 59.5 -252t175.5 -86q82 0 127 50t56 136v555h-191v96h375v-907h-109l-75 78q-25 -45 -78 -71.5t-129 -26.5q-446 0 -447 434z" />
<glyph unicode="H" horiz-adv-x="1114" d="M115 0v1686h233v-775h420v775h233v-1686h-233v815h-420v-815h-233z" />
<glyph unicode="I" horiz-adv-x="460" d="M115 0v1686h233v-1686h-233z" />
<glyph unicode="J" horiz-adv-x="997" d="M41 367l100 16q33 -313 265 -313q123 0 183 86t60 252v1278h234v-1272q0 -434 -445 -434q-358 0 -397 387z" />
<glyph unicode="K" horiz-adv-x="1017" d="M115 0v1686h233v-779l469 779h129l-393 -668l448 -1018h-256l-333 811l-64 -111v-700h-233z" />
<glyph unicode="L" horiz-adv-x="837" d="M115 0v1686h233v-1596h463v-90h-696z" />
<glyph unicode="M" horiz-adv-x="1294" d="M102 0v1686h144l416 -1194l348 1194h170v-1686h-234v1137l-319 -1137h-95l-327 1032v-1032h-103z" />
<glyph unicode="N" horiz-adv-x="1081" d="M96 0v1686h105l692 -1233v1233h92v-1686h-70l-720 1198v-1198h-99z" />
<glyph unicode="O" horiz-adv-x="1089" d="M100 414v839q0 223 111 339t334 116q444 0 444 -434v-842q0 -223 -109.5 -337.5t-332.5 -114.5q-446 0 -447 434zM336 408q0 -166 53.5 -252t159.5 -86q102 0 153.5 85t51.5 244v881q0 166 -53.5 251t-159.5 85q-102 0 -153.5 -84t-51.5 -244v-880z" />
<glyph unicode="P" horiz-adv-x="1040" d="M115 0v1686h325q283 0 420 -97.5t137 -331.5q0 -238 -122.5 -340t-378.5 -102h-148v-815h-233zM348 907h148q133 0 203.5 78t70.5 266q0 190 -70.5 265t-203.5 75h-148v-684z" />
<glyph unicode="Q" horiz-adv-x="1089" d="M100 414v839q0 223 111 339t334 116q444 0 444 -434v-842q0 -186 -77.5 -297.5t-233.5 -142.5q35 -59 80 -113.5t102 -101.5l-59 -72q-147 115 -232 275h-22q-446 0 -447 434zM336 408q0 -158 47 -243t143 -95q-39 102 -55 223l96 10q18 -113 62 -217q61 31 93 110.5 t32 202.5v881q0 166 -53.5 251t-159.5 85q-102 0 -153.5 -84t-51.5 -244v-880z" />
<glyph unicode="R" horiz-adv-x="1069" d="M115 0v1686h374q248 0 378 -99.5t130 -329.5q0 -160 -80.5 -252t-240.5 -147q150 -29 237.5 -123t87.5 -258v-477h-233v496q0 319 -272 319h-148v-815h-233zM348 907h148q135 0 205.5 85t70.5 259q0 170 -70.5 255t-205.5 85h-148v-684z" />
<glyph unicode="S" horiz-adv-x="993" d="M59 367l101 16q45 -313 323 -313q127 0 206 55t79 145q0 29 -12.5 73t-59.5 101q-49 57 -110.5 128t-126 143.5t-127 145.5t-111.5 134q-59 72 -90 154t-31 170q0 82 27 152.5t80 123t133 83t184 30.5q336 0 375 -389l-100 -16q-43 313 -287 313q-119 0 -192.5 -55.5 t-73.5 -143.5q0 -29 10 -66.5t41 -72.5q113 -139 243 -283.5t251 -292.5q63 -78 96 -155.5t33 -173.5q0 -78 -27 -149.5t-81 -126t-134 -86t-186 -31.5q-203 0 -307.5 95t-125.5 292z" />
<glyph unicode="T" horiz-adv-x="829" d="M25 1585v101h780v-101h-268v-1585h-234v1585h-278z" />
<glyph unicode="U" horiz-adv-x="1097" d="M104 383v1303h236v-1317q0 -156 52 -227.5t165 -71.5q109 0 162 71.5t53 229.5v1315h221v-1303q0 -184 -110.5 -293.5t-331.5 -109.5q-225 0 -336 104t-111 299z" />
<glyph unicode="V" horiz-adv-x="1009" d="M25 1686h266l291 -1215l309 1215h94l-426 -1686h-127z" />
<glyph unicode="W" horiz-adv-x="1701" d="M25 1686h262l284 -1215l299 1215h121l295 -1215l299 1215h90l-411 -1686h-123l-291 1200l-301 -1200h-125z" />
<glyph unicode="X" horiz-adv-x="962" d="M27 1686h270l221 -619l273 619h104l-324 -721l365 -965h-252l-248 688l-299 -688h-108l354 803z" />
<glyph unicode="Y" horiz-adv-x="1079" d="M16 1686h263l321 -887l361 887h102l-412 -1018v-668h-233v627z" />
<glyph unicode="Z" horiz-adv-x="962" d="M39 0v90l631 1495h-631v101h887v-101l-623 -1495h623v-90h-887z" />
<glyph unicode="[" horiz-adv-x="634" d="M182 -147v1980h436v-100h-266v-1790h266v-90h-436z" />
<glyph unicode="\" horiz-adv-x="583" d="M4 1896h111l465 -2107h-109z" />
<glyph unicode="]" horiz-adv-x="634" d="M16 -57h267v1790h-267v100h437v-1980h-437v90z" />
<glyph unicode="^" horiz-adv-x="608" d="M29 1227l231 459h92l226 -459h-119l-156 325l-156 -325h-118z" />
<glyph unicode="_" horiz-adv-x="839" d="M-6 -106h850v-101h-850v101z" />
<glyph unicode="`" horiz-adv-x="524" d="M98 1612h168l146 -309h-101z" />
<glyph unicode="a" horiz-adv-x="778" d="M25 0l313 1264h111l303 -1264h-220l-59 258h-289l-65 -258h-94zM205 350h244l-119 504z" />
<glyph unicode="b" horiz-adv-x="841" d="M115 0v1264h239q190 0 272.5 -73t82.5 -208q0 -168 -138 -258q106 -31 169 -121t63 -242q0 -180 -103.5 -271t-291.5 -91h-293zM309 90h94q94 0 149.5 70.5t55.5 214.5q0 154 -55 228.5t-150 74.5h-94v-588zM309 770h84q137 0 137 217q0 182 -172 182h-49v-399z" />
<glyph unicode="c" horiz-adv-x="776" d="M100 309v615q0 362 332 362q186 0 273 -139l-101 -51q-44 94 -153 94q-158 0 -158 -266v-619q0 -235 163 -235h1q158 0 180 233l96 -16q-29 -307 -301 -307q-332 0 -332 329z" />
<glyph unicode="d" horiz-adv-x="880" d="M115 0v1264h262q403 0 403 -332v-570q0 -362 -391 -362h-274zM309 90h78q201 0 201 272v576q0 231 -201 231h-78v-1079z" />
<glyph unicode="e" horiz-adv-x="690" d="M115 0v1264h524v-95h-332v-344h242v-94h-242v-641h332v-90h-524z" />
<glyph unicode="f" horiz-adv-x="663" d="M115 0v1264h524v-95h-332v-344h242v-94h-242v-731h-192z" />
<glyph unicode="g" horiz-adv-x="827" d="M100 324v585q0 362 332 363q186 0 273 -139l-101 -52q-45 94 -153 95q-158 0 -158 -267v-590q0 -235 163 -235h1q51 0 79.5 31.5t36.5 87.5v393h-141v94h297v-690h-94l-51 53q-25 -29 -62 -44t-90 -15q-332 0 -332 330z" />
<glyph unicode="h" horiz-adv-x="892" d="M115 0v1264h194v-496h279v496h192v-1264h-192v672h-279v-672h-194z" />
<glyph unicode="i" horiz-adv-x="405" d="M115 0v1264h176v-1264h-176z" />
<glyph unicode="j" horiz-adv-x="788" d="M41 287l96 16q25 -233 178 -233q84 0 125 54t41 181v959h193v-955q0 -329 -332 -329h-2q-272 0 -299 307z" />
<glyph unicode="k" horiz-adv-x="802" d="M115 0v1264h194v-543l322 543h119l-295 -506l331 -758h-211l-235 592l-31 -57v-535h-194z" />
<glyph unicode="l" horiz-adv-x="663" d="M115 0v1264h192v-1174h332v-90h-524z" />
<glyph unicode="m" horiz-adv-x="1026" d="M102 0v1264h127l291 -846l246 846h147v-1264h-196v754l-211 -754h-88l-217 688v-688h-99z" />
<glyph unicode="n" horiz-adv-x="860" d="M96 0v1264h101l477 -875v875h90v-1264h-72l-497 844v-844h-99z" />
<glyph unicode="o" horiz-adv-x="868" d="M100 342v582q0 362 334 362t334 -334v-641q0 -331 -332 -331h-2q-334 0 -334 362zM293 307q0 -121 34.5 -177t104.5 -56q141 0 141 231v653q0 231 -141 232q-70 0 -104.5 -56.5t-34.5 -177.5v-649z" />
<glyph unicode="p" horiz-adv-x="821" d="M115 0v1264h272q201 0 296 -81t95 -245q0 -340 -375 -340h-94v-598h-194zM309 690h94q186 0 187 242q0 121 -48 179t-139 58h-94v-479z" />
<glyph unicode="q" horiz-adv-x="868" d="M100 342v582q0 362 334 362t334 -334v-641q0 -260 -201 -315q25 -41 56.5 -76t70.5 -70l-57 -71q-115 88 -174 203q-8 0 -15.5 -1t-13.5 -1q-334 0 -334 362zM293 307q0 -117 31.5 -173t97.5 -60q-14 41 -24.5 82t-14.5 84l92 10q4 -37 12.5 -76t24.5 -76q61 55 61 207 v653q0 231 -141 232q-70 0 -104.5 -56.5t-34.5 -177.5v-649z" />
<glyph unicode="r" horiz-adv-x="847" d="M115 0v1264h250q207 0 310 -75t103 -251q0 -117 -48 -186.5t-152 -106.5q94 -29 148 -98.5t54 -181.5v-365h-192v375q0 223 -185 223h-94v-598h-194zM309 690h94q186 0 187 242q0 121 -48 179t-139 58h-94v-479z" />
<glyph unicode="s" horiz-adv-x="780" d="M59 287l97 16q14 -123 74.5 -178t146.5 -55q92 0 145 40t53 93q0 33 -9 57.5t-38 63.5q-23 33 -66.5 83t-95 107t-101.5 114.5t-87 104.5q-43 57 -65.5 114.5t-22.5 131.5q0 63 20.5 119.5t59.5 97.5t97 65.5t134 24.5q137 0 207 -76.5t86 -230.5l-98 -18 q-31 235 -194 235h-1q-78 0 -130 -35t-52 -100q0 -57 49 -119q25 -31 70 -84t95 -112.5t98.5 -116t76.5 -92.5q53 -68 78 -126.5t25 -127.5q0 -141 -88 -222t-254 -81q-139 0 -214 79.5t-96 227.5z" />
<glyph unicode="t" horiz-adv-x="636" d="M25 1165v99h585v-99h-190v-1165h-197v1165h-198z" />
<glyph unicode="u" horiz-adv-x="876" d="M104 279v985h195v-990q0 -115 38 -159.5t105 -44.5q72 0 110 45t38 159v990h182v-988q0 -296 -334 -296t-334 299z" />
<glyph unicode="v" horiz-adv-x="778" d="M25 1264h200l217 -895l217 895h93l-310 -1264h-112z" />
<glyph unicode="w" horiz-adv-x="1286" d="M25 1264h215l200 -854l209 854h105l207 -854l206 854h93l-306 -1264h-106l-209 842l-205 -842h-106z" />
<glyph unicode="x" horiz-adv-x="749" d="M27 1264h221l158 -443l182 443h104l-235 -553l266 -711h-211l-174 492l-203 -492h-106l256 604z" />
<glyph unicode="y" horiz-adv-x="827" d="M16 1264h224l215 -641l258 641h98l-305 -764v-500h-197v471z" />
<glyph unicode="z" horiz-adv-x="741" d="M39 0v82l428 1083h-428v99h666v-90l-422 -1084h422v-90h-666z" />
<glyph unicode="{" horiz-adv-x="710" d="M84 793v98q31 4 59.5 10t50 24.5t34 55.5t12.5 102q0 55 -8.5 108.5t-17.5 108t-17.5 109.5t-8.5 113q0 178 121 269t348 91h45v-90h-104q-117 0 -183.5 -71.5t-66.5 -207.5q0 -37 7 -85t16.5 -96t16.5 -94t7 -81q0 -72 -16.5 -123t-42 -88t-54 -61.5t-53.5 -42.5 q25 -18 53.5 -43t54 -62t42 -88t16.5 -123q0 -35 -7 -80t-16.5 -94t-16.5 -96t-7 -86q0 -135 66.5 -205.5t183.5 -70.5h104v-93h-45q-227 0 -348 91.5t-121 269.5q0 57 8.5 112.5t17.5 109.5t17.5 107.5t8.5 108.5q0 68 -12.5 103.5t-34 54t-50 24.5t-59.5 11z" />
<glyph unicode="|" horiz-adv-x="632" d="M256 -43v1772h119v-1772h-119z" />
<glyph unicode="}" horiz-adv-x="710" d="M8 -106h105q117 0 183 70.5t66 205.5q0 39 -7 86t-16 96t-16.5 94.5t-7.5 79.5q0 72 16.5 123t42 88t54.5 61.5t53 43.5q-25 18 -53.5 42.5t-54 61.5t-42 88t-16.5 123q0 35 7.5 81t16.5 94t16 96.5t7 84.5q0 135 -66.5 207t-182.5 72h-105v90h45q227 0 348 -91t121 -269 q0 -57 -8 -112.5t-17.5 -110t-17.5 -107.5t-8 -109q0 -66 12.5 -102.5t34 -55t50 -24.5t59.5 -10v-98q-31 -4 -59.5 -10.5t-50 -25t-34 -54t-12.5 -103.5q0 -55 8 -108.5t17.5 -107.5t17.5 -109.5t8 -112.5q0 -178 -120.5 -269.5t-348.5 -91.5h-45v93z" />
<glyph unicode="~" d="M29 823q35 68 91 107t136 39q43 0 86 -14.5t84 -32t78 -31.5t71 -14q47 0 74 29.5t49 70.5l84 -68q-33 -66 -89 -105.5t-134 -39.5q-45 0 -88 14.5t-84 31.5t-79 31.5t-70 14.5q-45 0 -69 -24.5t-54 -75.5z" />
<glyph unicode="&#xa1;" horiz-adv-x="366" d="M49 -244q0 35 4 124t10.5 207t14.5 251t16 258t16.5 228.5t14.5 160.5h113q6 -57 14 -160.5t16 -228.5t16.5 -258t13.5 -251t9 -207t4 -124q0 -68 -37.5 -100.5t-93.5 -32.5q-55 0 -93 33t-38 100zM53 1221q0 57 38 94t93 37q57 0 94 -37t37 -94q0 -55 -36.5 -93 t-94.5 -38q-55 0 -93 37.5t-38 93.5z" />
<glyph unicode="&#xa2;" horiz-adv-x="874" d="M78 604v426q0 176 85 278.5t255 121.5v256h112v-256q96 -6 167 -51.5t120 -123.5l-119 -65q-61 121 -190 121q-98 0 -147.5 -67.5t-49.5 -225.5v-402q0 -150 50.5 -210t154.5 -60q133 0 186 141l109 -49q-84 -188 -279 -207v-231h-112v231q-342 31 -342 373z" />
<glyph unicode="&#xa3;" horiz-adv-x="1257" d="M49 152q0 74 52.5 123t131.5 49q70 0 99 -31v577h-119v93h119v333q0 100 20.5 177t68.5 129.5t125 79t187 26.5q178 0 265 -80t108 -272l-100 -17q-16 156 -70.5 216.5t-167.5 60.5q-104 0 -153.5 -71.5t-49.5 -223.5v-358h379v-93h-379v-260q0 -170 -17.5 -277.5 t-39.5 -148.5q43 -55 124 -90t183 -35q45 0 91 7.5t91 23.5t84 43t70 66l55 -43q-66 -86 -170 -131t-221 -45t-197.5 25.5t-164.5 92.5q-33 -49 -81 -83.5t-145 -34.5q-92 0 -135 50t-43 122zM154 152q0 -35 16 -58.5t51 -23.5q27 0 46.5 13t32.5 34.5t19.5 48.5t10.5 51 q-18 10 -37 17.5t-43 7.5q-96 0 -96 -90z" />
<glyph unicode="&#xa4;" horiz-adv-x="1218" d="M86 342l150 143q-35 53 -56.5 118t-21.5 136q0 74 20.5 138.5t57.5 119.5l-148 142l125 121l139 -148q53 39 119 61.5t139 22.5q72 0 136.5 -22.5t121.5 -61.5l138 148l122 -121l-145 -140q39 -55 60.5 -120.5t21.5 -139.5q0 -72 -21.5 -137t-60.5 -119l147 -141 l-122 -125l-142 152q-57 -39 -120.5 -60.5t-135.5 -21.5t-136 21.5t-120 60.5l-141 -152zM270 739q0 -70 27 -131t73 -106t107.5 -72t132.5 -27q70 0 132.5 27t108.5 72t72.5 106t26.5 131q0 72 -26.5 134.5t-72.5 108.5t-108.5 72.5t-132.5 26.5q-72 0 -133 -26.5 t-107 -72.5t-73 -108.5t-27 -134.5z" />
<glyph unicode="&#xa5;" horiz-adv-x="1079" d="M16 1686h263l321 -887l361 887h102l-412 -1018v-84h264v-109h-264v-186h264v-111h-264v-178h-233v178h-256v111h256v186h-256v109h256v43z" />
<glyph unicode="&#xa6;" horiz-adv-x="632" d="M256 -43v678h119v-678h-119zM256 1071v658h119v-658h-119z" />
<glyph unicode="&#xa7;" horiz-adv-x="802" d="M45 86l96 16q14 -123 74.5 -178t146.5 -55q92 0 145.5 40t53.5 93q0 35 -9 58.5t-38 64.5q-23 31 -67 82t-95 107.5t-101 113.5t-87 104q-45 57 -66.5 115t-21.5 131q0 106 54 187.5t161 109.5q-74 80 -114 154t-40 170q0 63 19.5 120.5t58.5 98.5t97 65.5t134 24.5 q139 0 209 -78t84 -231l-96 -17q-31 233 -197 234q-78 0 -129 -35t-51 -100q0 -57 47 -117q25 -31 70 -84t96 -112.5t99.5 -116t76.5 -93.5q53 -68 77 -126t24 -127q0 -113 -57.5 -190t-168.5 -101q43 -55 75 -96.5t52.5 -78t29.5 -73.5t9 -84q0 -139 -88 -221t-254 -82 q-141 0 -214.5 81t-94.5 226zM205 860q0 -31 12 -59.5t35 -59.5q31 -39 90 -107.5t121 -139.5q74 10 117 47t43 84q0 33 -17.5 68.5t-51.5 78.5t-82 96.5t-112 124.5q-68 -4 -111.5 -38.5t-43.5 -94.5z" />
<glyph unicode="&#xa8;" horiz-adv-x="794" d="M100 1501q0 49 34 83t83 34t84 -34t35 -83t-35 -83t-84 -34t-83 34t-34 83zM459 1501q0 49 33.5 83t82.5 34t84 -34t35 -83t-34.5 -83t-84.5 -34q-49 0 -82.5 34t-33.5 83z" />
<glyph unicode="&#xaa;" horiz-adv-x="491" d="M31 821l174 707h82l168 -707h-146l-30 140h-136l-37 -140h-75zM160 1034h102l-53 207z" />
<glyph unicode="&#xab;" horiz-adv-x="995" d="M35 379zM35 801v92l424 420v-148l-332 -319l332 -324v-143zM533 801v92l424 420v-148l-332 -319l332 -324v-143z" />
<glyph unicode="&#xac;" d="M29 811v111h753v-643h-110v532h-643z" />
<glyph unicode="&#xad;" horiz-adv-x="481" d="M27 807v104h426v-104h-426z" />
<glyph unicode="&#xaf;" horiz-adv-x="792" d="M100 1442v102h592v-102h-592z" />
<glyph unicode="&#xb0;" horiz-adv-x="610" d="M29 1407q0 135 74.5 218t199.5 83q127 0 202 -83t75 -218t-75 -216t-202 -81q-125 0 -199.5 81t-74.5 216zM135 1411q0 -90 41 -153.5t129 -63.5t129 63.5t41 153.5q0 88 -41 152.5t-129 64.5t-129 -64.5t-41 -152.5z" />
<glyph unicode="&#xb1;" d="M29 2v111h753v-111h-753zM29 2zM29 811v111h321v319h109v-319h323v-111h-323v-322h-109v322h-321z" />
<glyph unicode="&#xb2;" horiz-adv-x="602" d="M39 754l328 653q23 43 22 92q0 20 -6 43t-19.5 41t-37 30.5t-56.5 12.5q-53 0 -85.5 -45t-43.5 -129l-80 14q27 233 218 234q61 0 107 -19.5t76 -50.5t44 -71t14 -80q0 -33 -8 -66t-29 -70l-256 -516h281v-73h-469zM39 754z" />
<glyph unicode="&#xb3;" horiz-adv-x="661" d="M35 741zM35 975l82 12q10 -72 60 -122t122 -50q39 0 65.5 18.5t44 48t25.5 68.5t8 80q0 72 -19.5 125t-51.5 74q-25 -16 -55.5 -23.5t-59.5 -7.5q-31 0 -55.5 17.5t-24.5 58.5q0 45 23.5 59t52.5 14t60.5 -11t54.5 -25q31 23 49 57.5t18 107.5q0 27 -5 52.5t-18.5 46 t-36 34t-55.5 13.5q-80 0 -129 -84l-73 27q59 135 205 135q111 0 175 -62.5t64 -165.5q0 -31 -11 -60.5t-29.5 -56t-40 -48t-42.5 -35.5q70 -39 111 -96.5t41 -155.5q0 -131 -78 -205t-215 -74q-98 0 -171 60.5t-91 173.5zM242 1274q-1 -15 28 -15q23 0 41 9q-31 20 -47 20 q-23 0 -22 -14z" />
<glyph unicode="&#xb4;" horiz-adv-x="524" d="M98 1303l146 309h168l-213 -309h-101z" />
<glyph unicode="&#xb6;" horiz-adv-x="1105" d="M53 1274q0 223 107.5 317.5t333.5 94.5h503v-1829h-123v1738h-235v-1738h-123v991h-67q-201 0 -298.5 98t-97.5 328zM233 1268q0 -182 54.5 -258t161.5 -76h67v661h-67q-106 0 -161 -72.5t-55 -254.5z" />
<glyph unicode="&#xb7;" horiz-adv-x="366" d="M51 709zM51 840q0 55 37 93t94 38q55 0 93 -38t38 -93q0 -57 -37.5 -94t-93.5 -37q-57 0 -94 37t-37 94z" />
<glyph unicode="&#xb8;" horiz-adv-x="442" d="M100 -152q0 47 35 78t86 31q49 0 85 -30.5t36 -78.5q0 -86 -49 -141t-127 -84l-29 55q27 10 56.5 28t46.5 38q-10 -2 -17.5 -3t-11.5 -1q-51 0 -81 33.5t-30 74.5z" />
<glyph unicode="&#xb9;" horiz-adv-x="346" d="M47 754zM47 1610v77h209v-933h-152v856h-57z" />
<glyph unicode="&#xba;" horiz-adv-x="540" d="M76 1018v313q0 207 192 207q190 0 191 -188v-349q0 -193 -191 -192q-193 0 -192 209zM203 999q-1 -114 65 -114q63 0 64 114v353q0 113 -64 112q-66 0 -65 -112v-353z" />
<glyph unicode="&#xbb;" horiz-adv-x="995" d="M35 379v143l334 324l-334 319v148l424 -420v-92zM35 379zM533 379v143l334 324l-334 319v148l424 -420v-92z" />
<glyph unicode="&#xbc;" horiz-adv-x="1370" d="M102 0l971 1686h105l-971 -1686h-105zM102 0zM127 1610v77h209v-933h-152v856h-57zM725 119v63l350 731h121v-720h72v-74h-72v-139h-152v139h-319zM811 193h233v471z" />
<glyph unicode="&#xbd;" horiz-adv-x="1413" d="M102 0l971 1686h105l-971 -1686h-105zM102 0zM127 1610v77h209v-933h-152v856h-57zM830 -20l328 653q23 43 22 92q0 20 -6 43t-19.5 41t-37 30.5t-56.5 12.5q-53 0 -85.5 -45t-43.5 -129l-80 14q27 233 218 234q61 0 107 -19.5t76 -50.5t44 -71t14 -80q0 -33 -8 -66 t-29 -70l-256 -516h281v-73h-469z" />
<glyph unicode="&#xbe;" horiz-adv-x="1607" d="M100 0zM101 975l82 12q10 -72 60 -122t122 -50q39 0 65.5 18.5t44 48t25.5 68.5t8 80q0 72 -19.5 125t-51.5 74q-25 -16 -55.5 -23.5t-59.5 -7.5q-31 0 -55.5 17.5t-24.5 58.5q0 45 23.5 59t52.5 14t60.5 -11t54.5 -25q31 23 49 57.5t18 107.5q0 27 -5 52.5t-18.5 46 t-36 34t-55.5 13.5q-80 0 -129 -84l-73 27q59 135 205 135q111 0 175 -62.5t64 -165.5q0 -31 -11 -60.5t-29.5 -56t-40 -48t-42.5 -35.5q70 -39 111 -96.5t41 -155.5q0 -131 -78 -205t-215 -74q-98 0 -171 60.5t-91 173.5zM308 1274q-1 -15 28 -15q23 0 41 9q-31 20 -47 20 q-23 0 -22 -14zM340 0l971 1686h105l-971 -1686h-105zM965 119v63l350 731h121v-720h72v-74h-72v-139h-152v139h-319zM1051 193h233v471z" />
<glyph unicode="&#xbf;" horiz-adv-x="862" d="M18 2q0 70 13.5 125t54.5 129q18 35 50 81t70 97t78 104.5t74 100.5q33 47 54.5 78t34 53.5t16.5 40.5t4 41q0 66 -68 88l50 80q100 -37 142 -99.5t42 -140.5q0 -61 -25.5 -127.5t-68.5 -126.5q-70 -98 -152 -205.5t-149 -203.5q-27 -41 -45.5 -91.5t-18.5 -103.5 q0 -55 22.5 -95t57.5 -64.5t79 -37t87 -12.5q141 0 216 83t97 243l103 -19q-23 -197 -120.5 -297t-295.5 -100q-88 0 -162 24.5t-127 73t-83 119t-30 162.5zM356 1221q0 55 39 93t94 38t93.5 -38t38.5 -93t-38 -94.5t-94 -39.5q-55 0 -94 39t-39 95z" />
<glyph unicode="&#xc0;" horiz-adv-x="1009" d="M25 0l424 1686h126l410 -1686h-256l-86 350h-436l-88 -350h-94zM25 0zM229 442h394l-193 787zM235 2034h168l146 -309h-101z" />
<glyph unicode="&#xc1;" horiz-adv-x="1009" d="M25 0l424 1686h126l410 -1686h-256l-86 350h-436l-88 -350h-94zM25 0zM229 442h394l-193 787zM446 1725l146 309h168l-213 -309h-101z" />
<glyph unicode="&#xc2;" horiz-adv-x="1009" d="M25 0l424 1686h126l410 -1686h-256l-86 350h-436l-88 -350h-94zM25 0zM182 1763l256 318h131l254 -318h-145l-174 252l-176 -252h-146zM229 442h394l-193 787z" />
<glyph unicode="&#xc3;" horiz-adv-x="1009" d="M25 0l424 1686h126l410 -1686h-256l-86 350h-436l-88 -350h-94zM25 0zM186 1884q31 61 78 98t113 37q37 0 72.5 -13t70.5 -29.5t66.5 -30t60.5 -13.5q39 0 61.5 29t41.5 64l71 -64q-27 -59 -74 -97t-112 -38q-39 0 -76 13.5t-70.5 30.5t-65.5 30.5t-61 13.5 q-37 0 -56 -23.5t-48 -70.5zM229 442h394l-193 787z" />
<glyph unicode="&#xc4;" horiz-adv-x="1009" d="M25 0l424 1686h126l410 -1686h-256l-86 350h-436l-88 -350h-94zM25 0zM206 1923q0 49 34 83t83 34t84 -34t35 -83t-35 -83t-84 -34t-83 34t-34 83zM229 442h394l-193 787zM565 1923q0 49 33.5 83t82.5 34t84 -34t35 -83t-34.5 -83t-84.5 -34q-49 0 -82.5 34t-33.5 83z " />
<glyph unicode="&#xc5;" horiz-adv-x="1009" d="M25 0l424 1686h126l410 -1686h-256l-86 350h-436l-88 -350h-94zM25 0zM229 442h394l-193 787zM336 1911q0 76 45 123t123 47q76 0 122 -47t46 -123q0 -78 -46 -125t-122 -47q-78 0 -123 47t-45 125zM412 1911q0 -47 23.5 -80t70.5 -33t68.5 33t21.5 80q0 45 -21.5 77.5 t-68.5 32.5t-70.5 -32.5t-23.5 -77.5z" />
<glyph unicode="&#xc6;" horiz-adv-x="1372" d="M25 0l424 1686h872v-95h-612l90 -680h399v-96h-387l100 -725h410v-90h-653l-50 350h-411l-88 -350h-94zM229 442h377l-125 971z" />
<glyph unicode="&#xc7;" horiz-adv-x="987" d="M100 0zM100 414v819q0 475 445 475q250 0 354 -166l-111 -53q-55 123 -217 123q-236 0 -235 -379v-825q0 -166 60.5 -252t183.5 -86q227 0 264 313l100 -16q-39 -387 -397 -387q-446 0 -447 434zM417 -152q0 47 35 78t86 31q49 0 85 -30.5t36 -78.5q0 -86 -49 -141 t-127 -84l-29 55q27 10 56.5 28t46.5 38q-10 -2 -17.5 -3t-11.5 -1q-51 0 -81 33.5t-30 74.5z" />
<glyph unicode="&#xc8;" horiz-adv-x="862" d="M115 0v1686h696v-95h-463v-680h340v-96h-340v-725h463v-90h-696zM115 0zM202 2034h168l146 -309h-101z" />
<glyph unicode="&#xc9;" horiz-adv-x="862" d="M115 0v1686h696v-95h-463v-680h340v-96h-340v-725h463v-90h-696zM115 0zM413 1725l146 309h168l-213 -309h-101z" />
<glyph unicode="&#xca;" horiz-adv-x="862" d="M115 0v1686h696v-95h-463v-680h340v-96h-340v-725h463v-90h-696zM115 0zM151 1763l256 318h131l254 -318h-145l-174 252l-176 -252h-146z" />
<glyph unicode="&#xcb;" horiz-adv-x="862" d="M115 0v1686h696v-95h-463v-680h340v-96h-340v-725h463v-90h-696zM115 0zM168 1923q0 49 34 83t83 34t84 -34t35 -83t-35 -83t-84 -34t-83 34t-34 83zM527 1923q0 49 33.5 83t82.5 34t84 -34t35 -83t-34.5 -83t-84.5 -34q-49 0 -82.5 34t-33.5 83z" />
<glyph unicode="&#xcc;" horiz-adv-x="460" d="M-37 2034h168l146 -309h-101zM0 0zM115 0v1686h233v-1686h-233z" />
<glyph unicode="&#xcd;" horiz-adv-x="460" d="M115 0v1686h233v-1686h-233zM115 0zM172 1725l146 309h168l-213 -309h-101z" />
<glyph unicode="&#xce;" horiz-adv-x="460" d="M-88 1763l256 318h131l254 -318h-145l-174 252l-176 -252h-146zM0 0zM115 0v1686h233v-1686h-233z" />
<glyph unicode="&#xcf;" horiz-adv-x="460" d="M-64 1923q0 49 34 83t83 34t84 -34t35 -83t-35 -83t-84 -34t-83 34t-34 83zM0 0zM115 0v1686h233v-1686h-233zM295 1923q0 49 33.5 83t82.5 34t84 -34t35 -83t-34.5 -83t-84.5 -34q-49 0 -82.5 34t-33.5 83z" />
<glyph unicode="&#xd0;" horiz-adv-x="1101" d="M0 815v96h115v775h342q545 0 544 -435v-776q0 -475 -522 -475h-364v815h-115zM348 90h127q293 0 293 385v782q0 334 -293 334h-127v-680h240v-96h-240v-725z" />
<glyph unicode="&#xd1;" horiz-adv-x="1081" d="M96 0v1686h105l692 -1233v1233h92v-1686h-70l-720 1198v-1198h-99zM96 0zM223 1884q31 61 78 98t113 37q37 0 72.5 -13t70.5 -29.5t66.5 -30t60.5 -13.5q39 0 61.5 29t41.5 64l71 -64q-27 -59 -74 -97t-112 -38q-39 0 -76 13.5t-70.5 30.5t-65.5 30.5t-61 13.5 q-37 0 -56 -23.5t-48 -70.5z" />
<glyph unicode="&#xd2;" horiz-adv-x="1089" d="M100 0zM100 414v839q0 223 111 339t334 116q444 0 444 -434v-842q0 -223 -109.5 -337.5t-332.5 -114.5q-446 0 -447 434zM274 2034h168l146 -309h-101zM336 408q0 -166 53.5 -252t159.5 -86q102 0 153.5 85t51.5 244v881q0 166 -53.5 251t-159.5 85q-102 0 -153.5 -84 t-51.5 -244v-880z" />
<glyph unicode="&#xd3;" horiz-adv-x="1089" d="M100 0zM100 414v839q0 223 111 339t334 116q444 0 444 -434v-842q0 -223 -109.5 -337.5t-332.5 -114.5q-446 0 -447 434zM336 408q0 -166 53.5 -252t159.5 -86q102 0 153.5 85t51.5 244v881q0 166 -53.5 251t-159.5 85q-102 0 -153.5 -84t-51.5 -244v-880zM485 1725 l146 309h168l-213 -309h-101z" />
<glyph unicode="&#xd4;" horiz-adv-x="1089" d="M100 0zM100 414v839q0 223 111 339t334 116q444 0 444 -434v-842q0 -223 -109.5 -337.5t-332.5 -114.5q-446 0 -447 434zM223 1763l256 318h131l254 -318h-145l-174 252l-176 -252h-146zM336 408q0 -166 53.5 -252t159.5 -86q102 0 153.5 85t51.5 244v881 q0 166 -53.5 251t-159.5 85q-102 0 -153.5 -84t-51.5 -244v-880z" />
<glyph unicode="&#xd5;" horiz-adv-x="1089" d="M100 0zM100 414v839q0 223 111 339t334 116q444 0 444 -434v-842q0 -223 -109.5 -337.5t-332.5 -114.5q-446 0 -447 434zM227 1884q31 61 78 98t113 37q37 0 72.5 -13t70.5 -29.5t66.5 -30t60.5 -13.5q39 0 61.5 29t41.5 64l71 -64q-27 -59 -74 -97t-112 -38 q-39 0 -76 13.5t-70.5 30.5t-65.5 30.5t-61 13.5q-37 0 -56 -23.5t-48 -70.5zM336 408q0 -166 53.5 -252t159.5 -86q102 0 153.5 85t51.5 244v881q0 166 -53.5 251t-159.5 85q-102 0 -153.5 -84t-51.5 -244v-880z" />
<glyph unicode="&#xd6;" horiz-adv-x="1089" d="M100 0zM100 414v839q0 223 111 339t334 116q444 0 444 -434v-842q0 -223 -109.5 -337.5t-332.5 -114.5q-446 0 -447 434zM247 1923q0 49 34 83t83 34t84 -34t35 -83t-35 -83t-84 -34t-83 34t-34 83zM336 408q0 -166 53.5 -252t159.5 -86q102 0 153.5 85t51.5 244v881 q0 166 -53.5 251t-159.5 85q-102 0 -153.5 -84t-51.5 -244v-880zM606 1923q0 49 33.5 83t82.5 34t84 -34t35 -83t-34.5 -83t-84.5 -34q-49 0 -82.5 34t-33.5 83z" />
<glyph unicode="&#xd7;" d="M100 639l230 227l-230 226l78 77l230 -227l225 227l78 -77l-228 -226l230 -227l-78 -78l-227 227l-230 -227z" />
<glyph unicode="&#xd8;" horiz-adv-x="1089" d="M100 -78l82 197q-82 106 -82 295v839q0 223 111 339t334 116q170 0 272 -63l62 147h110l-90 -217q90 -109 90 -301v-842q0 -223 -109.5 -337.5t-332.5 -114.5q-178 0 -285 67l-51 -125h-111zM336 487l399 959q-47 170 -194 170q-102 0 -153.5 -84t-51.5 -244v-801z M350 256q41 -186 199 -186q102 0 153.5 85t51.5 244v826z" />
<glyph unicode="&#xd9;" horiz-adv-x="1097" d="M104 0zM104 383v1303h236v-1317q0 -156 52 -227.5t165 -71.5q109 0 162 71.5t53 229.5v1315h221v-1303q0 -184 -110.5 -293.5t-331.5 -109.5q-225 0 -336 104t-111 299zM280 2034h168l146 -309h-101z" />
<glyph unicode="&#xda;" horiz-adv-x="1097" d="M104 0zM104 383v1303h236v-1317q0 -156 52 -227.5t165 -71.5q109 0 162 71.5t53 229.5v1315h221v-1303q0 -184 -110.5 -293.5t-331.5 -109.5q-225 0 -336 104t-111 299zM489 1725l146 309h168l-213 -309h-101z" />
<glyph unicode="&#xdb;" horiz-adv-x="1097" d="M104 0zM104 383v1303h236v-1317q0 -156 52 -227.5t165 -71.5q109 0 162 71.5t53 229.5v1315h221v-1303q0 -184 -110.5 -293.5t-331.5 -109.5q-225 0 -336 104t-111 299zM227 1763l256 318h131l254 -318h-145l-174 252l-176 -252h-146z" />
<glyph unicode="&#xdc;" horiz-adv-x="1097" d="M104 0zM104 383v1303h236v-1317q0 -156 52 -227.5t165 -71.5q109 0 162 71.5t53 229.5v1315h221v-1303q0 -184 -110.5 -293.5t-331.5 -109.5q-225 0 -336 104t-111 299zM252 1923q0 49 34 83t83 34t84 -34t35 -83t-35 -83t-84 -34t-83 34t-34 83zM611 1923q0 49 33.5 83 t82.5 34t84 -34t35 -83t-34.5 -83t-84.5 -34q-49 0 -82.5 34t-33.5 83z" />
<glyph unicode="&#xdd;" horiz-adv-x="1079" d="M16 0zM16 1686h263l321 -887l361 887h102l-412 -1018v-668h-233v627zM522 1725l146 309h168l-213 -309h-101z" />
<glyph unicode="&#xde;" horiz-adv-x="1019" d="M115 0v1686h233v-310h203q401 0 401 -334v-378q0 -362 -389 -363h-215v-301h-233zM348 391h203q168 0 168 273v387q0 231 -168 231h-203v-891z" />
<glyph unicode="&#xdf;" horiz-adv-x="1560" d="M59 0zM59 287l97 16q14 -123 74.5 -178t146.5 -55q92 0 145 40t53 93q0 33 -9 57.5t-38 63.5q-23 33 -66.5 83t-95 107t-101.5 114.5t-87 104.5q-43 57 -65.5 114.5t-22.5 131.5q0 63 20.5 119.5t59.5 97.5t97 65.5t134 24.5q137 0 207 -76.5t86 -230.5l-98 -18 q-31 236 -195 235q-78 0 -130 -35t-52 -100q0 -57 49 -119q25 -31 70 -84t95 -112.5t98.5 -116t76.5 -92.5q53 -68 78 -126.5t25 -127.5q0 -141 -88 -222t-254 -81q-139 0 -214 79.5t-96 227.5zM839 287l97 16q14 -123 74.5 -178t146.5 -55q92 0 145 40t53 93q0 33 -9 57.5 t-38 63.5q-23 33 -66.5 83t-95 107t-101.5 114.5t-87 104.5q-43 57 -65.5 114.5t-22.5 131.5q0 63 20.5 119.5t59.5 97.5t97 65.5t134 24.5q137 0 207 -76.5t86 -230.5l-98 -18q-31 236 -195 235q-78 0 -130 -35t-52 -100q0 -57 49 -119q25 -31 70 -84t95 -112.5t98.5 -116 t76.5 -92.5q53 -68 78 -126.5t25 -127.5q0 -141 -88 -222t-254 -81q-139 0 -214 79.5t-96 227.5z" />
<glyph unicode="&#xe0;" horiz-adv-x="778" d="M25 0l313 1264h111l303 -1264h-220l-59 258h-289l-65 -258h-94zM25 0zM118 1612h168l146 -309h-101zM205 350h244l-119 504z" />
<glyph unicode="&#xe1;" horiz-adv-x="778" d="M25 0l313 1264h111l303 -1264h-220l-59 258h-289l-65 -258h-94zM25 0zM205 350h244l-119 504zM329 1303l146 309h168l-213 -309h-101z" />
<glyph unicode="&#xe2;" horiz-adv-x="778" d="M25 0l313 1264h111l303 -1264h-220l-59 258h-289l-65 -258h-94zM25 0zM71 1341l256 318h131l254 -318h-145l-174 252l-176 -252h-146zM205 350h244l-119 504z" />
<glyph unicode="&#xe3;" horiz-adv-x="778" d="M25 0l313 1264h111l303 -1264h-220l-59 258h-289l-65 -258h-94zM25 0zM73 1462q31 61 78 98t113 37q37 0 72.5 -13t70.5 -29.5t66.5 -30t60.5 -13.5q39 0 61.5 29t41.5 64l71 -64q-27 -59 -74 -97t-112 -38q-39 0 -76 13.5t-70.5 30.5t-65.5 30.5t-61 13.5 q-37 0 -56 -23.5t-48 -70.5zM205 350h244l-119 504z" />
<glyph unicode="&#xe4;" horiz-adv-x="778" d="M25 0l313 1264h111l303 -1264h-220l-59 258h-289l-65 -258h-94zM25 0zM94 1501q0 49 34 83t83 34t84 -34t35 -83t-35 -83t-84 -34t-83 34t-34 83zM205 350h244l-119 504zM453 1501q0 49 33.5 83t82.5 34t84 -34t35 -83t-34.5 -83t-84.5 -34q-49 0 -82.5 34t-33.5 83z" />
<glyph unicode="&#xe5;" horiz-adv-x="778" d="M25 0l313 1264h111l303 -1264h-220l-59 258h-289l-65 -258h-94zM25 0zM205 350h244l-119 504zM221 1489q0 76 45 123t123 47q76 0 122 -47t46 -123q0 -78 -46 -125t-122 -47q-78 0 -123 47t-45 125zM297 1489q0 -47 23.5 -80t70.5 -33t68.5 33t21.5 80q0 45 -21.5 77.5 t-68.5 32.5t-70.5 -32.5t-23.5 -77.5z" />
<glyph unicode="&#xe6;" horiz-adv-x="1071" d="M25 0l313 1264h682v-95h-488l41 -344h357v-94h-342l78 -641h354v-90h-563l-29 258h-244l-65 -258h-94zM205 350h211l-72 578z" />
<glyph unicode="&#xe7;" horiz-adv-x="776" d="M100 0zM100 309v615q0 362 332 362q186 0 273 -139l-101 -51q-44 94 -153 94q-158 0 -158 -266v-619q0 -236 164 -235q158 0 180 233l96 -16q-29 -307 -301 -307q-332 0 -332 329zM305 -152q0 47 35 78t86 31q49 0 85 -30.5t36 -78.5q0 -86 -49 -141t-127 -84l-29 55 q27 10 56.5 28t46.5 38q-10 -2 -17.5 -3t-11.5 -1q-51 0 -81 33.5t-30 74.5z" />
<glyph unicode="&#xe8;" horiz-adv-x="690" d="M115 0v1264h524v-95h-332v-344h242v-94h-242v-641h332v-90h-524zM115 0zM116 1612h168l146 -309h-101z" />
<glyph unicode="&#xe9;" horiz-adv-x="690" d="M115 0v1264h524v-95h-332v-344h242v-94h-242v-641h332v-90h-524zM115 0zM327 1303l146 309h168l-213 -309h-101z" />
<glyph unicode="&#xea;" horiz-adv-x="690" d="M51 0zM51 1341l256 318h131l254 -318h-145l-174 252l-176 -252h-146zM115 0v1264h524v-95h-332v-344h242v-94h-242v-641h332v-90h-524z" />
<glyph unicode="&#xeb;" horiz-adv-x="690" d="M82 0zM82 1501q0 49 34 83t83 34t84 -34t35 -83t-35 -83t-84 -34t-83 34t-34 83zM115 0v1264h524v-95h-332v-344h242v-94h-242v-641h332v-90h-524zM441 1501q0 49 33.5 83t82.5 34t84 -34t35 -83t-34.5 -83t-84.5 -34q-49 0 -82.5 34t-33.5 83z" />
<glyph unicode="&#xec;" horiz-adv-x="440" d="M-29 1612h168l146 -309h-101zM0 0zM150 0v1264h176v-1264h-176z" />
<glyph unicode="&#xed;" horiz-adv-x="444" d="M115 0v1264h176v-1264h-176zM115 0zM143 1303l146 309h168l-213 -309h-101z" />
<glyph unicode="&#xee;" horiz-adv-x="544" d="M-47 1341l256 318h131l254 -318h-145l-174 252l-176 -252h-146zM0 0zM185 0v1264h176v-1264h-176z" />
<glyph unicode="&#xef;" horiz-adv-x="530" d="M-29 1501q0 49 34 83t83 34t84 -34t35 -83t-35 -83t-84 -34t-83 34t-34 83zM0 0zM178 0v1264h176v-1264h-176zM330 1501q0 49 33.5 83t82.5 34t84 -34t35 -83t-34.5 -83t-84.5 -34q-49 0 -82.5 34t-33.5 83z" />
<glyph unicode="&#xf0;" horiz-adv-x="880" d="M0 731v94h115v439h262q403 0 403 -332v-570q0 -362 -391 -362h-274v731h-115zM309 90h78q201 0 201 272v576q0 231 -201 231h-78v-344h152v-94h-152v-641z" />
<glyph unicode="&#xf1;" horiz-adv-x="860" d="M96 0v1264h101l477 -875v875h90v-1264h-72l-497 844v-844h-99zM96 0zM110 1462q31 61 78 98t113 37q37 0 72.5 -13t70.5 -29.5t66.5 -30t60.5 -13.5q39 0 61.5 29t41.5 64l71 -64q-27 -59 -74 -97t-112 -38q-39 0 -76 13.5t-70.5 30.5t-65.5 30.5t-61 13.5 q-37 0 -56 -23.5t-48 -70.5z" />
<glyph unicode="&#xf2;" horiz-adv-x="868" d="M100 0zM100 342v582q0 362 334 362t334 -334v-641q0 -332 -334 -331q-334 0 -334 362zM164 1612h168l146 -309h-101zM293 307q0 -121 34.5 -177t104.5 -56q141 0 141 231v653q0 231 -141 232q-70 0 -104.5 -56.5t-34.5 -177.5v-649z" />
<glyph unicode="&#xf3;" horiz-adv-x="868" d="M100 0zM100 342v582q0 362 334 362t334 -334v-641q0 -332 -334 -331q-334 0 -334 362zM293 307q0 -121 34.5 -177t104.5 -56q141 0 141 231v653q0 231 -141 232q-70 0 -104.5 -56.5t-34.5 -177.5v-649zM374 1303l146 309h168l-213 -309h-101z" />
<glyph unicode="&#xf4;" horiz-adv-x="868" d="M100 0zM100 342v582q0 362 334 362t334 -334v-641q0 -332 -334 -331q-334 0 -334 362zM112 1341l256 318h131l254 -318h-145l-174 252l-176 -252h-146zM293 307q0 -121 34.5 -177t104.5 -56q141 0 141 231v653q0 231 -141 232q-70 0 -104.5 -56.5t-34.5 -177.5v-649z" />
<glyph unicode="&#xf5;" horiz-adv-x="868" d="M100 0zM100 342v582q0 362 334 362t334 -334v-641q0 -332 -334 -331q-334 0 -334 362zM114 1462q31 61 78 98t113 37q37 0 72.5 -13t70.5 -29.5t66.5 -30t60.5 -13.5q39 0 61.5 29t41.5 64l71 -64q-27 -59 -74 -97t-112 -38q-39 0 -76 13.5t-70.5 30.5t-65.5 30.5 t-61 13.5q-37 0 -56 -23.5t-48 -70.5zM293 307q0 -121 34.5 -177t104.5 -56q141 0 141 231v653q0 231 -141 232q-70 0 -104.5 -56.5t-34.5 -177.5v-649z" />
<glyph unicode="&#xf6;" horiz-adv-x="868" d="M100 0zM100 342v582q0 362 334 362t334 -334v-641q0 -332 -334 -331q-334 0 -334 362zM135 1501q0 49 34 83t83 34t84 -34t35 -83t-35 -83t-84 -34t-83 34t-34 83zM293 307q0 -121 34.5 -177t104.5 -56q141 0 141 231v653q0 231 -141 232q-70 0 -104.5 -56.5 t-34.5 -177.5v-649zM494 1501q0 49 33.5 83t82.5 34t84 -34t35 -83t-34.5 -83t-84.5 -34q-49 0 -82.5 34t-33.5 83z" />
<glyph unicode="&#xf7;" d="M29 338zM29 811v111h753v-111h-753zM274 469q0 55 37 93t94 38q55 0 93 -38t38 -93q0 -57 -37.5 -94t-93.5 -37q-57 0 -94 37t-37 94zM274 1266q0 55 37 93t94 38q55 0 93 -38t38 -93q0 -57 -37.5 -94t-93.5 -37q-57 0 -94 37t-37 94z" />
<glyph unicode="&#xf8;" horiz-adv-x="868" d="M100 -78l66 168q-66 86 -66 252v582q0 362 334 362q111 0 184 -37l39 101h111l-66 -168q66 -84 66 -230v-641q0 -332 -334 -331q-109 0 -186 38l-37 -96h-111zM293 416l262 674q-31 100 -123 100q-70 0 -104.5 -56.5t-34.5 -177.5v-540zM309 174q31 -100 123 -100 q141 0 141 231v545z" />
<glyph unicode="&#xf9;" horiz-adv-x="876" d="M104 0zM104 279v985h195v-990q0 -115 38 -159.5t105 -44.5q72 0 110 45t38 159v990h182v-988q0 -296 -334 -296t-334 299zM168 1612h168l146 -309h-101z" />
<glyph unicode="&#xfa;" horiz-adv-x="876" d="M104 0zM104 279v985h195v-990q0 -115 38 -159.5t105 -44.5q72 0 110 45t38 159v990h182v-988q0 -296 -334 -296t-334 299zM379 1303l146 309h168l-213 -309h-101z" />
<glyph unicode="&#xfb;" horiz-adv-x="876" d="M104 0zM104 279v985h195v-990q0 -115 38 -159.5t105 -44.5q72 0 110 45t38 159v990h182v-988q0 -296 -334 -296t-334 299zM116 1341l256 318h131l254 -318h-145l-174 252l-176 -252h-146z" />
<glyph unicode="&#xfc;" horiz-adv-x="876" d="M104 0zM104 279v985h195v-990q0 -115 38 -159.5t105 -44.5q72 0 110 45t38 159v990h182v-988q0 -296 -334 -296t-334 299zM141 1501q0 49 34 83t83 34t84 -34t35 -83t-35 -83t-84 -34t-83 34t-34 83zM500 1501q0 49 33.5 83t82.5 34t84 -34t35 -83t-34.5 -83t-84.5 -34 q-49 0 -82.5 34t-33.5 83z" />
<glyph unicode="&#xfd;" horiz-adv-x="827" d="M16 0zM16 1264h224l215 -641l258 641h98l-305 -764v-500h-197v471zM397 1303l146 309h168l-213 -309h-101z" />
<glyph unicode="&#xfe;" horiz-adv-x="858" d="M115 0v1264h194v-209h68q403 0 403 -334v-148q0 -362 -391 -362h-80v-211h-194zM309 301h78q201 0 201 272v154q0 231 -201 231h-78v-657z" />
<glyph unicode="&#xff;" horiz-adv-x="827" d="M16 0zM16 1264h224l215 -641l258 641h98l-305 -764v-500h-197v471zM155 1501q0 49 34 83t83 34t84 -34t35 -83t-35 -83t-84 -34t-83 34t-34 83zM514 1501q0 49 33.5 83t82.5 34t84 -34t35 -83t-34.5 -83t-84.5 -34q-49 0 -82.5 34t-33.5 83z" />
<glyph unicode="&#x152;" horiz-adv-x="1503" d="M100 414v839q0 223 111 339t334 116q121 0 209 -35v13h698v-95h-463v-680h338v-96h-338v-725h463v-90h-698v14q-88 -35 -207 -34q-446 0 -447 434zM336 408q0 -166 53.5 -252t159.5 -86q96 0 148.5 75.5t56.5 221.5v913q0 166 -53.5 251t-159.5 85q-102 0 -153.5 -84 t-51.5 -244v-880z" />
<glyph unicode="&#x153;" horiz-adv-x="1148" d="M100 342v582q0 362 334 362q78 0 146 -22h518v-95h-330v-344h240v-94h-240v-641h330v-90h-518q-33 -10 -69 -15t-77 -5q-334 0 -334 362zM293 307q0 -121 34.5 -177t104.5 -56q141 0 141 231v676q-6 209 -141 209q-70 0 -104.5 -56.5t-34.5 -177.5v-649z" />
<glyph unicode="&#x178;" horiz-adv-x="1079" d="M16 0zM16 1686h263l321 -887l361 887h102l-412 -1018v-668h-233v627zM282 1923q0 49 34 83t83 34t84 -34t35 -83t-35 -83t-84 -34t-83 34t-34 83zM641 1923q0 49 33.5 83t82.5 34t84 -34t35 -83t-34.5 -83t-84.5 -34q-49 0 -82.5 34t-33.5 83z" />
<glyph unicode="&#x2c6;" horiz-adv-x="843" d="M100 1341l256 318h131l254 -318h-145l-174 252l-176 -252h-146z" />
<glyph unicode="&#x2dc;" horiz-adv-x="837" d="M100 1462q31 61 78 98t113 37q37 0 72.5 -13t70.5 -29.5t66.5 -30t60.5 -13.5q39 0 61.5 29t41.5 64l71 -64q-27 -59 -74 -97t-112 -38q-39 0 -76 13.5t-70.5 30.5t-65.5 30.5t-61 13.5q-37 0 -56 -23.5t-48 -70.5z" />
<glyph unicode="&#x2000;" horiz-adv-x="1040" />
<glyph unicode="&#x2001;" horiz-adv-x="2081" />
<glyph unicode="&#x2002;" horiz-adv-x="1040" />
<glyph unicode="&#x2003;" horiz-adv-x="2081" />
<glyph unicode="&#x2004;" horiz-adv-x="693" />
<glyph unicode="&#x2005;" horiz-adv-x="520" />
<glyph unicode="&#x2006;" horiz-adv-x="346" />
<glyph unicode="&#x2007;" horiz-adv-x="346" />
<glyph unicode="&#x2008;" horiz-adv-x="260" />
<glyph unicode="&#x2009;" horiz-adv-x="416" />
<glyph unicode="&#x200a;" horiz-adv-x="115" />
<glyph unicode="&#x2010;" horiz-adv-x="481" d="M27 807v104h426v-104h-426z" />
<glyph unicode="&#x2011;" horiz-adv-x="481" d="M27 807v104h426v-104h-426z" />
<glyph unicode="&#x2012;" horiz-adv-x="481" d="M27 807v104h426v-104h-426z" />
<glyph unicode="&#x2013;" horiz-adv-x="880" d="M27 807v104h827v-104h-827z" />
<glyph unicode="&#x2014;" horiz-adv-x="1282" d="M27 807v104h1226v-104h-1226z" />
<glyph unicode="&#x2018;" horiz-adv-x="348" d="M31 1454q0 102 54 169t138 103l41 -67q-31 -10 -67.5 -33.5t-53.5 -46.5q10 2 18.5 3t12.5 1q55 0 88 -40t33 -89q0 -55 -38 -94t-93 -39t-94 39t-39 94z" />
<glyph unicode="&#x2019;" horiz-adv-x="360" d="M45 1575q0 55 37 94t92 39t94 -39t39 -94q0 -102 -53 -169t-137 -103l-41 67q31 10 66.5 33.5t54.5 46.5q-10 -2 -19.5 -3t-13.5 -1q-55 0 -87 40t-32 89z" />
<glyph unicode="&#x201a;" horiz-adv-x="366" d="M51 111q0 55 37 93t92 38t94 -38t39 -93q0 -102 -53 -170t-137 -103l-41 68q31 10 66.5 32.5t54.5 47.5q-10 -2 -19.5 -3t-13.5 -1q-55 0 -87 40t-32 89z" />
<glyph unicode="&#x201c;" horiz-adv-x="696" d="M31 1321zM31 1454q0 102 54 169t138 103l41 -67q-31 -10 -67.5 -33.5t-53.5 -46.5q10 2 18.5 3t12.5 1q55 0 88 -40t33 -89q0 -55 -38 -94t-93 -39t-94 39t-39 94zM379 1454q0 102 54 169t138 103l41 -67q-31 -10 -67.5 -33.5t-53.5 -46.5q10 2 18.5 3t12.5 1 q55 0 88 -40t33 -89q0 -55 -38 -94t-93 -39t-94 39t-39 94z" />
<glyph unicode="&#x201d;" horiz-adv-x="720" d="M45 1303zM45 1575q0 55 37 94t92 39t94 -39t39 -94q0 -102 -53 -169t-137 -103l-41 67q31 10 66.5 33.5t54.5 46.5q-10 -2 -19.5 -3t-13.5 -1q-55 0 -87 40t-32 89zM405 1575q0 55 37 94t92 39t94 -39t39 -94q0 -102 -53 -169t-137 -103l-41 67q31 10 66.5 33.5 t54.5 46.5q-10 -2 -19.5 -3t-13.5 -1q-55 0 -87 40t-32 89z" />
<glyph unicode="&#x201e;" horiz-adv-x="733" d="M51 0zM51 111q0 55 37 93t92 38t94 -38t39 -93q0 -102 -53 -170t-137 -103l-41 68q31 10 66.5 32.5t54.5 47.5q-10 -2 -19.5 -3t-13.5 -1q-55 0 -87 40t-32 89zM418 111q0 55 37 93t92 38t94 -38t39 -93q0 -102 -53 -170t-137 -103l-41 68q31 10 66.5 32.5t54.5 47.5 q-10 -2 -19.5 -3t-13.5 -1q-55 0 -87 40t-32 89z" />
<glyph unicode="&#x2022;" horiz-adv-x="714" d="M102 821q0 53 19.5 99.5t54.5 81t81 55t99 20.5t99.5 -20.5t81 -55t54 -81t19.5 -99.5t-19.5 -99t-54 -80t-80.5 -53.5t-100 -19.5q-53 0 -99 19.5t-81 53.5t-54.5 80t-19.5 99z" />
<glyph unicode="&#x2026;" horiz-adv-x="1662" d="M71 111q0 55 37 93t94 38q55 0 93 -38t38 -93q0 -57 -37.5 -94t-93.5 -37q-57 0 -94 37t-37 94zM72 0zM700 111q0 55 37 93t94 38q55 0 93 -38t38 -93q0 -57 -37.5 -94t-93.5 -37q-57 0 -94 37t-37 94zM1329 111q0 55 37 93t94 38q55 0 93 -38t38 -93q0 -57 -37.5 -94 t-93.5 -37q-57 0 -94 37t-37 94z" />
<glyph unicode="&#x202f;" horiz-adv-x="416" />
<glyph unicode="&#x2039;" horiz-adv-x="497" d="M35 801v92l424 420v-148l-332 -319l332 -324v-143z" />
<glyph unicode="&#x203a;" horiz-adv-x="497" d="M35 379v143l334 324l-334 319v148l424 -420v-92z" />
<glyph unicode="&#x205f;" horiz-adv-x="520" />
<glyph unicode="&#x20ac;" horiz-adv-x="995" d="M12 668l21 96h84v199h-105l21 96h84v164q0 238 109.5 361.5t332.5 123.5q252 0 356 -166l-112 -53q-53 123 -217 123q-119 0 -177.5 -99.5t-58.5 -289.5v-164h477l-47 -96h-430v-199h328l-47 -96h-281v-250q0 -166 60.5 -257t183.5 -91q115 0 181.5 84t82.5 239l100 -16 q-20 -195 -118.5 -296t-278.5 -101q-223 0 -333.5 113.5t-110.5 330.5v244h-105z" />
<glyph unicode="&#x2122;" horiz-adv-x="1419" d="M59 1620v66h455v-66h-149v-760h-152v760h-154zM694 860v826h99l225 -553l190 553h113v-826h-152v494l-163 -494h-68l-168 449v-449h-76z" />
<glyph unicode="&#x25fc;" horiz-adv-x="1259" d="M0 0v1260h1260v-1260h-1260z" />
</font>
</defs>
</svg>
